<svg fill="#ffffffff" viewBox="-1.6 -1.6 19.20 19.20" id="branch-16px" xmlns="http://www.w3.org/2000/svg"
    stroke="#ffffffff" stroke-width="0.00016" transform="rotate(0)">
    <g id="SVGRepo_bgCarrier" stroke-width="0"></g>
    <g id="SVGRepo_tracerCarrier" stroke-linecap="round" stroke-linejoin="round" stroke="#CCCCCC" stroke-width="0.032">
    </g>
    <g id="SVGRepo_iconCarrier">
        <path id="Path_194" data-name="Path 194"
            d="M-12.5-96h-7A1.5,1.5,0,0,0-21-94.5v3a.5.5,0,0,0,.5.5.5.5,0,0,0,.5-.5v-3a.5.5,0,0,1,.5-.5h7a.5.5,0,0,1,.5.5V-81h-2v-3.5a.5.5,0,0,0-.5-.5h-3a.5.5,0,0,0-.5.5V-81h-1.5a.5.5,0,0,0-.5.5.5.5,0,0,0,.5.5H-11V-94.5A1.5,1.5,0,0,0-12.5-96ZM-17-81v-3h2v3Zm0-10h-2v-2h2Zm4,0h-2v-2h2Zm-2,2h2v2h-2Zm-3.755,2H-17v-2h-2v1.526a4.023,4.023,0,0,0-.646-.88,4.042,4.042,0,0,0-5.708,0,4.042,4.042,0,0,0,0,5.708l2.5,2.5A.5.5,0,0,0-22.5-80a.5.5,0,0,0,.354-.146l2.5-2.5A4.041,4.041,0,0,0-18.755-87ZM-22.5-81.207l-2.146-2.147a3.037,3.037,0,0,1,0-4.292,3.024,3.024,0,0,1,2.146-.888,3.024,3.024,0,0,1,2.146.888,3.037,3.037,0,0,1,0,4.292ZM-21-85.5A1.5,1.5,0,0,1-22.5-84,1.5,1.5,0,0,1-24-85.5,1.5,1.5,0,0,1-22.5-87,1.5,1.5,0,0,1-21-85.5Z"
            transform="translate(26.534 96)"></path>
    </g>
</svg>