<!DOCTYPE svg PUBLIC "-//W3C//DTD SVG 1.1//EN" "http://www.w3.org/Graphics/SVG/1.1/DTD/svg11.dtd">
<!-- Uploaded to: SVG Repo, www.svgrepo.com, Transformed by: SVG Repo Mixer Tools -->
<svg width="256px" height="256px" viewBox="0 0 48.00 48.00" xmlns="http://www.w3.org/2000/svg" fill="#ffffff" stroke="#ffffff" stroke-width="0.00048000000000000007">
<g id="SVGRepo_bgCarrier" stroke-width="0"/>
<g id="SVGRepo_tracerCarrier" stroke-linecap="round" stroke-linejoin="round"/>
<g id="SVGRepo_iconCarrier">
<title>Free Medical icons</title>
<circle cx="13" cy="35" r="3" fill="#ccc"/>
<path d="M24,38a3,3,0,0,1,0-6v6Z" fill="#ccc"/>
<path d="M33,48H5a3,3,0,0,1-3-3V3A3,3,0,0,1,5,0H32a3,3,0,0,1,3,3V26H31V4H6V44H33v4Z" fill="#FFF"/>
<circle cx="13" cy="13" r="3" fill="#ccc"/>
<circle cx="24" cy="13" r="3" fill="#ccc"/>
<circle cx="13" cy="24" r="3" fill="#ccc"/>
<circle cx="24" cy="24" r="3" fill="#ccc"/>
<path d="M34,48A12,12,0,1,1,46,36,12,12,0,0,1,34,48Zm0-20a8,8,0,1,0,8,8A8,8,0,0,0,34,28Z" fill="#FFF"/>
<path d="M26.39,29.46A10,10,0,0,1,40.54,43.61" fill="#ccc"/>
<path d="M34,48A12,12,0,1,1,46,36,12,12,0,0,1,34,48Zm0-20a8,8,0,1,0,8,8A8,8,0,0,0,34,28Z" fill="#FFF"/>
<rect width="48" height="48" fill="none"/>
</g>
</svg>