<?xml version="1.0" standalone="no"?>
<!DOCTYPE svg PUBLIC "-//W3C//DTD SVG 20010904//EN" "http://www.w3.org/TR/2001/REC-SVG-20010904/DTD/svg10.dtd">
<svg version="1.0" xmlns="http://www.w3.org/2000/svg" width="512.000000pt" height="512.000000pt"
    viewBox="0 0 512.000000 512.000000" preserveAspectRatio="xMidYMid meet">

    <g transform="translate(0.000000,512.000000) scale(0.100000,-0.100000)" fill="#ffffff" stroke="none">
        <path d="M1305 4661 c-696 -262 -1232 -468 -1249 -481 -59 -48 -56 46 -56
-1620 0 -1649 -3 -1568 51 -1617 29 -26 2469 -943 2511 -943 42 0 2477 916
2506 943 55 50 52 -34 52 1617 0 1649 3 1568 -51 1617 -31 28 -2471 943 -2513
942 -17 0 -580 -207 -1251 -458z m1105 -125 c0 -194 -2 -214 -17 -221 -26 -10
-1923 -722 -2016 -756 l-77 -29 2 216 3 216 1045 393 c575 216 1048 393 1053
394 4 1 7 -95 7 -213z m1360 -181 c569 -213 1038 -391 1043 -394 4 -4 6 -102
5 -218 l-3 -211 -985 369 c-542 203 -1015 381 -1052 395 l-68 26 0 215 c0 168
3 214 13 210 6 -2 478 -179 1047 -392z m-1360 -1324 l0 -968 -1007 -378 c-555
-208 -1029 -386 -1055 -396 l-48 -19 0 969 0 968 1053 396 c578 218 1053 396
1055 396 1 1 2 -435 2 -968z m1409 553 c546 -205 995 -375 997 -377 2 -2 3
-438 2 -969 l-3 -965 -297 111 -298 111 0 740 c0 502 -4 753 -11 779 -20 74
-36 82 -472 245 -362 135 -413 152 -449 146 -51 -9 -105 -56 -118 -103 -6 -24
-10 -287 -10 -719 0 -376 -3 -683 -7 -683 -5 0 -106 36 -225 81 l-218 82 0
968 0 969 58 -22 c31 -11 504 -189 1051 -394z m-80 -648 c96 -36 175 -66 177
-66 6 0 4 -1246 -1 -1252 -5 -5 -92 26 -387 138 l-68 26 0 628 0 629 53 -18
c28 -11 130 -49 226 -85z m-197 -1507 c530 -198 970 -365 978 -369 13 -8 13
-9 0 -14 -8 -3 -452 -170 -987 -370 l-972 -364 -973 365 c-535 201 -979 368
-986 372 -15 8 1916 739 1955 740 12 1 456 -161 985 -360z" />
        <path d="M1335 3165 c-330 -124 -617 -233 -638 -242 -22 -9 -51 -33 -65 -52
l-27 -34 0 -428 c0 -416 1 -428 21 -455 36 -49 70 -68 121 -68 39 0 165 44
643 223 327 123 611 232 632 242 20 10 47 33 60 51 l23 33 0 427 c0 415 -1
427 -21 454 -31 42 -67 65 -110 70 -33 4 -136 -32 -639 -221z m473 -361 l-3
-216 -450 -169 c-247 -93 -451 -169 -453 -169 -1 0 -1 97 0 216 l3 216 445
168 c245 92 448 168 453 169 4 1 6 -96 5 -215z" />
    </g>
</svg>